<svg width="30" height="30" viewBox="0 0 30 30" fill="none" xmlns="http://www.w3.org/2000/svg">
<path fill-rule="evenodd" clip-rule="evenodd" d="M7.5 2.5C6.17392 2.5 4.90215 3.02678 3.96447 3.96447C3.02678 4.90215 2.5 6.17392 2.5 7.5V22.5C2.5 23.8261 3.02678 25.0979 3.96447 26.0355C4.90215 26.9732 6.17392 27.5 7.5 27.5H22.5C23.8261 27.5 25.0979 26.9732 26.0355 26.0355C26.9732 25.0979 27.5 23.8261 27.5 22.5V7.5C27.5 6.17392 26.9732 4.90215 26.0355 3.96447C25.0979 3.02678 23.8261 2.5 22.5 2.5H7.5ZM5 7.5C5 6.83696 5.26339 6.20107 5.73223 5.73223C6.20107 5.26339 6.83696 5 7.5 5H22.5C23.163 5 23.7989 5.26339 24.2678 5.73223C24.7366 6.20107 25 6.83696 25 7.5V22.5C25 23.163 24.7366 23.7989 24.2678 24.2678C23.7989 24.7366 23.163 25 22.5 25H7.5C6.83696 25 6.20107 24.7366 5.73223 24.2678C5.26339 23.7989 5 23.163 5 22.5V7.5ZM11.25 13.75C11.25 13.4185 11.1183 13.1005 10.8839 12.8661C10.6495 12.6317 10.3315 12.5 10 12.5C9.66848 12.5 9.35054 12.6317 9.11612 12.8661C8.8817 13.1005 8.75 13.4185 8.75 13.75V21.25C8.75 21.5815 8.8817 21.8995 9.11612 22.1339C9.35054 22.3683 9.66848 22.5 10 22.5C10.3315 22.5 10.6495 22.3683 10.8839 22.1339C11.1183 21.8995 11.25 21.5815 11.25 21.25V13.75ZM11.875 9.375C11.875 9.87228 11.6775 10.3492 11.3258 10.7008C10.9742 11.0525 10.4973 11.25 10 11.25C9.50272 11.25 9.02581 11.0525 8.67418 10.7008C8.32254 10.3492 8.125 9.87228 8.125 9.375C8.125 8.87772 8.32254 8.40081 8.67418 8.04918C9.02581 7.69754 9.50272 7.5 10 7.5C10.4973 7.5 10.9742 7.69754 11.3258 8.04918C11.6775 8.40081 11.875 8.87772 11.875 9.375ZM15 12.5C15.425 12.5 15.8 12.7125 16.025 13.035C16.6693 12.6839 17.3913 12.4999 18.125 12.5C20.825 12.5 22.5 14.9075 22.5 16.9638V21.25C22.5 21.5815 22.3683 21.8995 22.1339 22.1339C21.8995 22.3683 21.5815 22.5 21.25 22.5C20.9185 22.5 20.6005 22.3683 20.3661 22.1339C20.1317 21.8995 20 21.5815 20 21.25V16.9625C20 16.0025 19.175 14.9988 18.125 14.9988C17.47 14.9988 16.7463 15.355 16.25 16.2025V21.25C16.25 21.5815 16.1183 21.8995 15.8839 22.1339C15.6495 22.3683 15.3315 22.5 15 22.5C14.6685 22.5 14.3505 22.3683 14.1161 22.1339C13.8817 21.8995 13.75 21.5815 13.75 21.25V13.75C13.75 13.4185 13.8817 13.1005 14.1161 12.8661C14.3505 12.6317 14.6685 12.5 15 12.5Z" fill="#F8F8F8"/>
</svg>
