<svg width="30" height="30" viewBox="0 0 30 30" fill="none" xmlns="http://www.w3.org/2000/svg">
<path fill-rule="evenodd" clip-rule="evenodd" d="M11.5088 18.4912C14.4063 21.3887 17.0975 23.0037 19.1 23.9012C20.8488 24.6849 22.9125 24.0699 24.5213 22.4612L24.8888 22.0924L20.4688 19.2799C19.6288 20.5049 18.04 21.2237 16.4538 20.5549C15.2525 20.0474 13.6625 19.1799 12.2413 17.7587C10.82 16.3374 9.95375 14.7474 9.44625 13.5462C8.77625 11.9599 9.49375 10.3712 10.72 9.53118L7.9075 5.11118L7.53875 5.47868C5.93 7.08743 5.31625 9.15118 6.09875 10.8999C6.99625 12.9024 8.61125 15.5937 11.5088 18.4912V18.4912ZM18.0788 26.1824C15.81 25.1662 12.8638 23.3812 9.74125 20.2587C6.61875 17.1374 4.83375 14.1899 3.81625 11.9212C2.4725 8.92118 3.7 5.78368 5.77125 3.71118L6.13875 3.34243C6.40343 3.07758 6.72423 2.87556 7.07744 2.7513C7.43066 2.62704 7.80728 2.58371 8.17948 2.6245C8.55169 2.6653 8.90998 2.78918 9.2279 2.987C9.54581 3.18483 9.81523 3.45153 10.0163 3.76743L13.5538 9.32993C13.6474 9.47748 13.7092 9.64304 13.7349 9.81592C13.7606 9.9888 13.7498 10.1652 13.7032 10.3336C13.6565 10.502 13.5751 10.6588 13.4641 10.7939C13.3531 10.9289 13.215 11.0391 13.0588 11.1174L12.2675 11.5137C11.7275 11.7837 11.6175 12.2599 11.7488 12.5737C12.1725 13.5774 12.8813 14.8624 14.0088 15.9912C15.1375 17.1187 16.4225 17.8274 17.4263 18.2512C17.74 18.3837 18.2163 18.2724 18.4863 17.7324L18.8825 16.9412C18.9607 16.7848 19.0709 16.6466 19.2058 16.5355C19.3408 16.4244 19.4976 16.3428 19.666 16.296C19.8345 16.2492 20.0109 16.2383 20.1838 16.264C20.3567 16.2896 20.5224 16.3513 20.67 16.4449L26.2325 19.9837C26.5484 20.1847 26.8151 20.4541 27.0129 20.772C27.2108 21.09 27.3346 21.4482 27.3754 21.8205C27.4162 22.1927 27.3729 22.5693 27.2486 22.9225C27.1244 23.2757 26.9224 23.5965 26.6575 23.8612L26.2888 24.2287C24.2175 26.3012 21.08 27.5274 18.0788 26.1824V26.1824Z" fill="#F8F8F8"/>
</svg>
