<svg width="30" height="30" viewBox="0 0 30 30" fill="none" xmlns="http://www.w3.org/2000/svg">
<path fill-rule="evenodd" clip-rule="evenodd" d="M26.25 7.44751C26.2613 8.20626 26.1663 9.15751 26.0825 9.85126C26.056 10.0804 26.0142 10.3076 25.9575 10.5313C27.0275 12.5125 27.5 14.8963 27.5 17.5C27.5 20.585 26.0163 23.1263 23.705 24.8588C21.415 26.575 18.325 27.5 15 27.5C11.675 27.5 8.585 26.575 6.295 24.8588C3.98375 23.1263 2.5 20.585 2.5 17.5C2.5 14.8963 2.97125 12.5125 4.04375 10.5313C3.98707 10.3076 3.94531 10.0804 3.91875 9.85126C3.8325 9.15751 3.7375 8.20626 3.75 7.44751C3.7625 6.59376 3.875 5.74001 3.99875 4.89251C4.05625 4.50001 4.14625 4.13126 4.5725 3.89876C5.0075 3.66126 5.465 3.74876 5.91625 3.87751C7.43875 4.30876 8.86625 4.91501 10.2088 5.64001C11.625 5.21626 13.2225 5.00001 15 5.00001C16.7775 5.00001 18.375 5.21626 19.79 5.64126C21.1513 4.89702 22.591 4.30591 24.0825 3.87876C24.5338 3.75001 24.9925 3.66126 25.4263 3.89876C25.8513 4.13126 25.9425 4.50001 26.0013 4.89251C26.1238 5.74001 26.2375 6.59376 26.25 7.44751ZM25 17.5C25 15.3913 24.515 12.5 21.875 12.5C20.685 12.5 19.5588 12.8125 18.4338 13.125C17.31 13.4375 16.1875 13.75 15 13.75C13.8125 13.75 12.69 13.4375 11.5663 13.125C10.4413 12.8125 9.31625 12.5 8.125 12.5C5.4925 12.5 5 15.4 5 17.5C5 19.705 6.03375 21.5388 7.795 22.8588C9.575 24.195 12.1125 25 15 25C17.8875 25 20.4238 24.1938 22.205 22.8588C23.9663 21.5375 25 19.705 25 17.5ZM12.5 18.125C12.5 19.85 11.66 21.25 10.625 21.25C9.59 21.25 8.75 19.85 8.75 18.125C8.75 16.4 9.59 15 10.625 15C11.66 15 12.5 16.4 12.5 18.125ZM19.375 21.25C20.41 21.25 21.25 19.85 21.25 18.125C21.25 16.4 20.41 15 19.375 15C18.34 15 17.5 16.4 17.5 18.125C17.5 19.85 18.34 21.25 19.375 21.25Z" fill="#F8F8F8"/>
</svg>
