<svg width="406" height="66" viewBox="0 0 406 66" fill="none" xmlns="http://www.w3.org/2000/svg">
<path d="M15.904 18.16V37.792C15.904 39.616 16.32 41.024 17.152 42.016C18.016 43.008 19.312 43.504 21.04 43.504C22.768 43.504 24.064 43.008 24.928 42.016C25.824 40.992 26.272 39.584 26.272 37.792V18.16H35.68V37.792C35.68 40.896 35.024 43.552 33.712 45.76C32.4 47.936 30.608 49.584 28.336 50.704C26.096 51.792 23.6 52.336 20.848 52.336C18.096 52.336 15.632 51.792 13.456 50.704C11.312 49.584 9.616 47.936 8.368 45.76C7.152 43.584 6.544 40.928 6.544 37.792V18.16H15.904ZM52.3319 52.336C49.8999 52.336 47.7239 51.936 45.8039 51.136C43.9159 50.304 42.4119 49.184 41.2919 47.776C40.2039 46.336 39.5959 44.72 39.4679 42.928H48.5879C48.7159 43.792 49.1159 44.464 49.7879 44.944C50.4599 45.424 51.2919 45.664 52.2839 45.664C53.0519 45.664 53.6599 45.504 54.1079 45.184C54.5559 44.864 54.7799 44.448 54.7799 43.936C54.7799 43.264 54.4119 42.768 53.6759 42.448C52.9399 42.128 51.7239 41.776 50.0279 41.392C48.1079 41.008 46.5079 40.576 45.2279 40.096C43.9479 39.616 42.8279 38.832 41.8679 37.744C40.9399 36.656 40.4759 35.184 40.4759 33.328C40.4759 31.728 40.9079 30.288 41.7719 29.008C42.6359 27.696 43.8999 26.656 45.5639 25.888C47.2599 25.12 49.2919 24.736 51.6599 24.736C55.1799 24.736 57.9479 25.6 59.9639 27.328C61.9799 29.056 63.1479 31.328 63.4679 34.144H54.9719C54.8119 33.28 54.4279 32.624 53.8199 32.176C53.2439 31.696 52.4599 31.456 51.4679 31.456C50.6999 31.456 50.1079 31.6 49.6919 31.888C49.3079 32.176 49.1159 32.576 49.1159 33.088C49.1159 33.728 49.4839 34.224 50.2199 34.576C50.9559 34.896 52.1399 35.232 53.7719 35.584C55.7239 36 57.3399 36.464 58.6199 36.976C59.9319 37.488 61.0679 38.32 62.0279 39.472C63.0199 40.592 63.5159 42.128 63.5159 44.08C63.5159 45.648 63.0519 47.056 62.1239 48.304C61.2279 49.552 59.9319 50.544 58.2359 51.28C56.5719 51.984 54.6039 52.336 52.3319 52.336ZM93.8691 38.224C93.8691 38.96 93.8211 39.696 93.7251 40.432H75.9171C76.0131 41.904 76.4131 43.008 77.1171 43.744C77.8531 44.448 78.7811 44.8 79.9011 44.8C81.4691 44.8 82.5891 44.096 83.2611 42.688H93.2931C92.8771 44.544 92.0611 46.208 90.8451 47.68C89.6611 49.12 88.1571 50.256 86.3331 51.088C84.5091 51.92 82.4931 52.336 80.2851 52.336C77.6291 52.336 75.2611 51.776 73.1811 50.656C71.1331 49.536 69.5171 47.936 68.3331 45.856C67.1811 43.776 66.6051 41.328 66.6051 38.512C66.6051 35.696 67.1811 33.264 68.3331 31.216C69.4851 29.136 71.0851 27.536 73.1331 26.416C75.2131 25.296 77.5971 24.736 80.2851 24.736C82.9411 24.736 85.2931 25.28 87.3411 26.368C89.3891 27.456 90.9891 29.024 92.1411 31.072C93.2931 33.088 93.8691 35.472 93.8691 38.224ZM84.2691 35.872C84.2691 34.72 83.8851 33.824 83.1171 33.184C82.3491 32.512 81.3891 32.176 80.2371 32.176C79.0851 32.176 78.1411 32.496 77.4051 33.136C76.6691 33.744 76.1891 34.656 75.9651 35.872H84.2691ZM107.127 29.824C108.183 28.288 109.463 27.072 110.967 26.176C112.471 25.28 114.087 24.832 115.815 24.832V34.864H113.175C111.127 34.864 109.607 35.264 108.615 36.064C107.623 36.864 107.127 38.256 107.127 40.24V52H97.7193V25.072H107.127V29.824ZM151.32 18.16V25.648H137.784V31.6H147.768V38.752H137.784V52H128.376V18.16H151.32ZM160.034 22.576C158.37 22.576 157.026 22.128 156.002 21.232C155.01 20.304 154.514 19.152 154.514 17.776C154.514 16.368 155.01 15.2 156.002 14.272C157.026 13.344 158.37 12.88 160.034 12.88C161.666 12.88 162.978 13.344 163.97 14.272C164.994 15.2 165.506 16.368 165.506 17.776C165.506 19.152 164.994 20.304 163.97 21.232C162.978 22.128 161.666 22.576 160.034 22.576ZM164.69 25.072V52H155.282V25.072H164.69ZM179.455 29.824C180.511 28.288 181.791 27.072 183.295 26.176C184.799 25.28 186.415 24.832 188.143 24.832V34.864H185.503C183.455 34.864 181.935 35.264 180.943 36.064C179.951 36.864 179.455 38.256 179.455 40.24V52H170.047V25.072H179.455V29.824ZM202.988 52.336C200.556 52.336 198.38 51.936 196.46 51.136C194.572 50.304 193.068 49.184 191.948 47.776C190.86 46.336 190.252 44.72 190.124 42.928H199.244C199.372 43.792 199.772 44.464 200.444 44.944C201.116 45.424 201.948 45.664 202.94 45.664C203.708 45.664 204.316 45.504 204.764 45.184C205.212 44.864 205.436 44.448 205.436 43.936C205.436 43.264 205.068 42.768 204.332 42.448C203.596 42.128 202.38 41.776 200.684 41.392C198.764 41.008 197.164 40.576 195.884 40.096C194.604 39.616 193.484 38.832 192.524 37.744C191.596 36.656 191.132 35.184 191.132 33.328C191.132 31.728 191.564 30.288 192.428 29.008C193.292 27.696 194.556 26.656 196.22 25.888C197.916 25.12 199.948 24.736 202.316 24.736C205.836 24.736 208.604 25.6 210.62 27.328C212.636 29.056 213.804 31.328 214.124 34.144H205.628C205.468 33.28 205.084 32.624 204.476 32.176C203.9 31.696 203.116 31.456 202.124 31.456C201.356 31.456 200.764 31.6 200.348 31.888C199.964 32.176 199.772 32.576 199.772 33.088C199.772 33.728 200.14 34.224 200.876 34.576C201.612 34.896 202.796 35.232 204.428 35.584C206.38 36 207.996 36.464 209.276 36.976C210.588 37.488 211.724 38.32 212.684 39.472C213.676 40.592 214.172 42.128 214.172 44.08C214.172 45.648 213.708 47.056 212.78 48.304C211.884 49.552 210.588 50.544 208.892 51.28C207.228 51.984 205.26 52.336 202.988 52.336ZM234.685 43.984V52H230.605C223.725 52 220.285 48.592 220.285 41.776V32.896H216.973V25.072H220.285V18.544H229.741V25.072H234.637V32.896H229.741V41.92C229.741 42.656 229.901 43.184 230.221 43.504C230.573 43.824 231.149 43.984 231.949 43.984H234.685Z" fill="#F96E46"/>
<path d="M11.904 14.16V33.792C11.904 35.616 12.32 37.024 13.152 38.016C14.016 39.008 15.312 39.504 17.04 39.504C18.768 39.504 20.064 39.008 20.928 38.016C21.824 36.992 22.272 35.584 22.272 33.792V14.16H31.68V33.792C31.68 36.896 31.024 39.552 29.712 41.76C28.4 43.936 26.608 45.584 24.336 46.704C22.096 47.792 19.6 48.336 16.848 48.336C14.096 48.336 11.632 47.792 9.456 46.704C7.312 45.584 5.616 43.936 4.368 41.76C3.152 39.584 2.544 36.928 2.544 33.792V14.16H11.904ZM48.3319 48.336C45.8999 48.336 43.7239 47.936 41.8039 47.136C39.9159 46.304 38.4119 45.184 37.2919 43.776C36.2039 42.336 35.5959 40.72 35.4679 38.928H44.5879C44.7159 39.792 45.1159 40.464 45.7879 40.944C46.4599 41.424 47.2919 41.664 48.2839 41.664C49.0519 41.664 49.6599 41.504 50.1079 41.184C50.5559 40.864 50.7799 40.448 50.7799 39.936C50.7799 39.264 50.4119 38.768 49.6759 38.448C48.9399 38.128 47.7239 37.776 46.0279 37.392C44.1079 37.008 42.5079 36.576 41.2279 36.096C39.9479 35.616 38.8279 34.832 37.8679 33.744C36.9399 32.656 36.4759 31.184 36.4759 29.328C36.4759 27.728 36.9079 26.288 37.7719 25.008C38.6359 23.696 39.8999 22.656 41.5639 21.888C43.2599 21.12 45.2919 20.736 47.6599 20.736C51.1799 20.736 53.9479 21.6 55.9639 23.328C57.9799 25.056 59.1479 27.328 59.4679 30.144H50.9719C50.8119 29.28 50.4279 28.624 49.8199 28.176C49.2439 27.696 48.4599 27.456 47.4679 27.456C46.6999 27.456 46.1079 27.6 45.6919 27.888C45.3079 28.176 45.1159 28.576 45.1159 29.088C45.1159 29.728 45.4839 30.224 46.2199 30.576C46.9559 30.896 48.1399 31.232 49.7719 31.584C51.7239 32 53.3399 32.464 54.6199 32.976C55.9319 33.488 57.0679 34.32 58.0279 35.472C59.0199 36.592 59.5159 38.128 59.5159 40.08C59.5159 41.648 59.0519 43.056 58.1239 44.304C57.2279 45.552 55.9319 46.544 54.2359 47.28C52.5719 47.984 50.6039 48.336 48.3319 48.336ZM89.8691 34.224C89.8691 34.96 89.8211 35.696 89.7251 36.432H71.9171C72.0131 37.904 72.4131 39.008 73.1171 39.744C73.8531 40.448 74.7811 40.8 75.9011 40.8C77.4691 40.8 78.5891 40.096 79.2611 38.688H89.2931C88.8771 40.544 88.0611 42.208 86.8451 43.68C85.6611 45.12 84.1571 46.256 82.3331 47.088C80.5091 47.92 78.4931 48.336 76.2851 48.336C73.6291 48.336 71.2611 47.776 69.1811 46.656C67.1331 45.536 65.5171 43.936 64.3331 41.856C63.1811 39.776 62.6051 37.328 62.6051 34.512C62.6051 31.696 63.1811 29.264 64.3331 27.216C65.4851 25.136 67.0851 23.536 69.1331 22.416C71.2131 21.296 73.5971 20.736 76.2851 20.736C78.9411 20.736 81.2931 21.28 83.3411 22.368C85.3891 23.456 86.9891 25.024 88.1411 27.072C89.2931 29.088 89.8691 31.472 89.8691 34.224ZM80.2691 31.872C80.2691 30.72 79.8851 29.824 79.1171 29.184C78.3491 28.512 77.3891 28.176 76.2371 28.176C75.0851 28.176 74.1411 28.496 73.4051 29.136C72.6691 29.744 72.1891 30.656 71.9651 31.872H80.2691ZM103.127 25.824C104.183 24.288 105.463 23.072 106.967 22.176C108.471 21.28 110.087 20.832 111.815 20.832V30.864H109.175C107.127 30.864 105.607 31.264 104.615 32.064C103.623 32.864 103.127 34.256 103.127 36.24V48H93.7193V21.072H103.127V25.824ZM147.32 14.16V21.648H133.784V27.6H143.768V34.752H133.784V48H124.376V14.16H147.32ZM156.034 18.576C154.37 18.576 153.026 18.128 152.002 17.232C151.01 16.304 150.514 15.152 150.514 13.776C150.514 12.368 151.01 11.2 152.002 10.272C153.026 9.344 154.37 8.88 156.034 8.88C157.666 8.88 158.978 9.344 159.97 10.272C160.994 11.2 161.506 12.368 161.506 13.776C161.506 15.152 160.994 16.304 159.97 17.232C158.978 18.128 157.666 18.576 156.034 18.576ZM160.69 21.072V48H151.282V21.072H160.69ZM175.455 25.824C176.511 24.288 177.791 23.072 179.295 22.176C180.799 21.28 182.415 20.832 184.143 20.832V30.864H181.503C179.455 30.864 177.935 31.264 176.943 32.064C175.951 32.864 175.455 34.256 175.455 36.24V48H166.047V21.072H175.455V25.824ZM198.988 48.336C196.556 48.336 194.38 47.936 192.46 47.136C190.572 46.304 189.068 45.184 187.948 43.776C186.86 42.336 186.252 40.72 186.124 38.928H195.244C195.372 39.792 195.772 40.464 196.444 40.944C197.116 41.424 197.948 41.664 198.94 41.664C199.708 41.664 200.316 41.504 200.764 41.184C201.212 40.864 201.436 40.448 201.436 39.936C201.436 39.264 201.068 38.768 200.332 38.448C199.596 38.128 198.38 37.776 196.684 37.392C194.764 37.008 193.164 36.576 191.884 36.096C190.604 35.616 189.484 34.832 188.524 33.744C187.596 32.656 187.132 31.184 187.132 29.328C187.132 27.728 187.564 26.288 188.428 25.008C189.292 23.696 190.556 22.656 192.22 21.888C193.916 21.12 195.948 20.736 198.316 20.736C201.836 20.736 204.604 21.6 206.62 23.328C208.636 25.056 209.804 27.328 210.124 30.144H201.628C201.468 29.28 201.084 28.624 200.476 28.176C199.9 27.696 199.116 27.456 198.124 27.456C197.356 27.456 196.764 27.6 196.348 27.888C195.964 28.176 195.772 28.576 195.772 29.088C195.772 29.728 196.14 30.224 196.876 30.576C197.612 30.896 198.796 31.232 200.428 31.584C202.38 32 203.996 32.464 205.276 32.976C206.588 33.488 207.724 34.32 208.684 35.472C209.676 36.592 210.172 38.128 210.172 40.08C210.172 41.648 209.708 43.056 208.78 44.304C207.884 45.552 206.588 46.544 204.892 47.28C203.228 47.984 201.26 48.336 198.988 48.336ZM230.685 39.984V48H226.605C219.725 48 216.285 44.592 216.285 37.776V28.896H212.973V21.072H216.285V14.544H225.741V21.072H230.637V28.896H225.741V37.92C225.741 38.656 225.901 39.184 226.221 39.504C226.573 39.824 227.149 39.984 227.949 39.984H230.685Z" fill="#F8F272"/>
</svg>
