<svg width="30" height="30" viewBox="0 0 30 30" fill="none" xmlns="http://www.w3.org/2000/svg">
<path fill-rule="evenodd" clip-rule="evenodd" d="M4.375 15C4.375 12.8986 4.99814 10.8443 6.16563 9.09707C7.33312 7.34979 8.99252 5.98796 10.934 5.18378C12.8755 4.3796 15.0118 4.16919 17.0728 4.57916C19.1339 4.98912 21.0271 6.00106 22.513 7.48699C23.9989 8.97292 25.0109 10.8661 25.4208 12.9272C25.8308 14.9882 25.6204 17.1245 24.8162 19.066C24.012 21.0075 22.6502 22.6669 20.9029 23.8344C19.1557 25.0019 17.1014 25.625 15 25.625C12.9898 25.6286 11.0203 25.0588 9.3225 23.9825C9.17148 23.887 9.00173 23.8249 8.82469 23.8006C8.64766 23.7762 8.46746 23.7901 8.29625 23.8412L4.69625 24.915L6.0525 21.7438C6.13133 21.5591 6.16454 21.3582 6.14931 21.1581C6.13408 20.9579 6.07086 20.7643 5.965 20.5938C4.92241 18.9145 4.37156 16.9766 4.375 15V15ZM15 1.875C7.75125 1.875 1.875 7.75125 1.875 15C1.875 17.2975 2.46625 19.46 3.50625 21.3412L1.35 26.3838C1.25667 26.6022 1.22752 26.8427 1.26594 27.0771C1.30437 27.3115 1.40879 27.5301 1.56697 27.7073C1.72515 27.8845 1.93055 28.013 2.15911 28.0776C2.38766 28.1423 2.62992 28.1405 2.8575 28.0725L8.4825 26.395C10.4663 27.5318 12.7136 28.1283 15 28.125C22.2487 28.125 28.125 22.2487 28.125 15C28.125 7.75125 22.2487 1.875 15 1.875ZM17.8662 17.7275L16.2225 18.885C15.3168 18.3639 14.4852 17.7236 13.75 16.9813C12.9607 16.193 12.2782 15.3046 11.72 14.3387L12.7637 13.4525C12.9812 13.268 13.1291 13.0146 13.1827 12.7345C13.2364 12.4544 13.1926 12.1643 13.0587 11.9125L11.7287 9.4125C11.6402 9.24647 11.5154 9.10256 11.3635 8.9915C11.2116 8.88044 11.0367 8.8051 10.8516 8.7711C10.6666 8.73709 10.4762 8.7453 10.2948 8.79511C10.1134 8.84491 9.9455 8.93503 9.80375 9.05875L9.40875 9.4025C8.46 10.23 7.89875 11.59 8.36375 12.9675C9.11188 15.1464 10.3499 17.1246 11.9825 18.75C14.2487 21.0162 16.5512 21.9088 17.8987 22.2563C18.9837 22.535 20.01 22.1612 20.7337 21.5712L21.4725 20.9687C21.6282 20.8417 21.7511 20.6791 21.8306 20.4945C21.9101 20.3099 21.9439 20.1089 21.9292 19.9085C21.9145 19.708 21.8516 19.5141 21.746 19.3431C21.6404 19.1721 21.4951 19.0291 21.3225 18.9262L19.225 17.6762C19.0176 17.5525 18.7788 17.4915 18.5374 17.5006C18.2961 17.5097 18.0625 17.5885 17.865 17.7275H17.8662Z" fill="#F8F8F8"/>
</svg>
