<svg width="30" height="30" viewBox="0 0 30 30" fill="none" xmlns="http://www.w3.org/2000/svg">
<path fill-rule="evenodd" clip-rule="evenodd" d="M18.5613 7.07246C17.9902 7.07222 17.4262 7.19877 16.91 7.44298C16.3938 7.68719 15.9383 8.04295 15.5763 8.4846C15.2143 8.92626 14.9548 9.44277 14.8167 9.99687C14.6786 10.551 14.6652 11.1288 14.7775 11.6887C14.8162 11.8827 14.8083 12.0831 14.7544 12.2735C14.7005 12.4638 14.6023 12.6386 14.4677 12.7836C14.3331 12.9286 14.166 13.0395 13.9802 13.1073C13.7944 13.1752 13.5951 13.1979 13.3988 13.1737C10.7109 12.8435 8.17717 11.7387 6.10626 9.99371C6.14501 10.7462 6.40626 11.5462 6.97251 12.3837L7.82126 13.6387L6.42751 14.2325L6.15876 14.3475C6.35876 14.5762 6.59876 14.81 6.86751 15.0412C7.22678 15.3487 7.60685 15.6311 8.00501 15.8862L8.01876 15.895H8.02001L9.95501 17.0687L7.93001 18.0812C7.83001 18.1312 7.73001 18.1762 7.63001 18.2162C8.06544 18.578 8.54512 18.883 9.05751 19.1237L10.795 19.945L9.34001 21.2C8.54626 21.885 7.74751 22.3962 6.71126 22.6662C8.30056 23.5128 10.0743 23.9537 11.875 23.95C17.8825 23.95 22.72 19.1562 22.72 13.2825V12.6325L23.2513 12.2587C24.0813 11.6762 24.6675 10.8887 25.0875 9.98746H22.3875L22.0475 9.27496C21.7344 8.61579 21.2408 8.05896 20.6239 7.6691C20.0071 7.27924 19.2923 7.07235 18.5625 7.07246H18.5613ZM4.46126 16.1975C4.34331 16.3325 4.2558 16.4914 4.20468 16.6633C4.15357 16.8352 4.14004 17.0161 4.16501 17.1937C4.30626 18.195 4.90501 19.0575 5.56751 19.7162C5.74751 19.895 5.94001 20.0662 6.14251 20.23L6.04876 20.255C5.44751 20.405 4.63626 20.4362 3.28501 20.305C3.02984 20.2799 2.77313 20.334 2.54971 20.4597C2.32628 20.5855 2.14694 20.777 2.036 21.0081C1.92506 21.2393 1.88789 21.499 1.92953 21.752C1.97116 22.005 2.0896 22.239 2.26876 22.4225C3.51973 23.7011 5.01413 24.7162 6.66379 25.408C8.31345 26.0997 10.085 26.454 11.8738 26.45C19.015 26.45 24.8725 20.905 25.2038 13.9075C26.8163 12.5537 27.6225 10.72 28.0575 9.05371C28.1059 8.86877 28.1112 8.67521 28.073 8.4879C28.0349 8.30059 27.9542 8.12453 27.8374 7.97326C27.7205 7.82199 27.5705 7.69954 27.3989 7.61532C27.2273 7.5311 27.0387 7.48736 26.8475 7.48746H23.9063C23.1868 6.37036 22.1354 5.50676 20.8999 5.018C19.6643 4.52924 18.3067 4.43989 17.0177 4.76251C15.7287 5.08513 14.5733 5.8035 13.7136 6.81668C12.854 7.82986 12.3334 9.08691 12.225 10.4112C9.92083 9.8114 7.85918 8.51222 6.32376 6.69246C6.18779 6.53169 6.0134 6.40787 5.81679 6.3325C5.62017 6.25713 5.40771 6.23264 5.1991 6.26132C4.9905 6.29 4.79252 6.37091 4.62354 6.49654C4.45457 6.62217 4.32006 6.78846 4.23251 6.97996C3.47501 8.63246 3.33001 10.5375 4.17501 12.475L3.88251 12.6C3.60261 12.7192 3.37581 12.9365 3.24464 13.211C3.11347 13.4856 3.08694 13.7985 3.17001 14.0912C3.40251 14.9062 3.92501 15.6262 4.46001 16.1975H4.46126Z" fill="#F8F8F8"/>
</svg>
